<?xml version="1.0" encoding="utf-8"?>
<!-- Generator: Adobe Illustrator 28.2.0, SVG Export Plug-In . SVG Version: 6.00 Build 0)  -->
<svg version="1.1" id="Layer_1" xmlns="http://www.w3.org/2000/svg" xmlns:xlink="http://www.w3.org/1999/xlink" x="0px" y="0px"
	 viewBox="0 0 1920 1080" style="enable-background:new 0 0 1920 1080;" xml:space="preserve">
<style type="text/css">
	.st0{fill:#EB0A1E;}
</style>
<path class="st0" d="M1282.11,971.23V109.49c-14.2,0-25.71-11.51-25.71-25.71h-12.92c0,14.2-11.51,25.71-25.71,25.71
	s-25.71-11.51-25.71-25.71h-12.92c0,14.2-11.51,25.71-25.71,25.71c-14.2,0-25.71-11.51-25.71-25.71h-12.92
	c0,14.2-11.51,25.71-25.71,25.71s-25.71-11.51-25.71-25.71h-12.92c0,14.2-11.51,25.71-25.71,25.71c-14.2,0-25.71-11.51-25.71-25.71
	h-12.92c0,14.2-11.51,25.71-25.71,25.71c-14.2,0-25.71-11.51-25.71-25.71h-12.92c0,14.2-11.51,25.71-25.71,25.71
	c-14.2,0-25.71-11.51-25.71-25.71H857.5c0,14.2-11.51,25.71-25.71,25.71s-25.71-11.51-25.71-25.71h-12.92
	c0,14.2-11.51,25.71-25.71,25.71s-25.71-11.51-25.71-25.71h-12.92c0,14.2-11.51,25.71-25.71,25.71c-14.2,0-25.71-11.51-25.71-25.71
	h-12.92c0,14.2-11.51,25.71-25.71,25.71v861.74c14.2,0,25.71,11.51,25.71,25.71h12.92c0-14.2,11.51-25.71,25.71-25.71
	c14.2,0,25.71,11.51,25.71,25.71h12.92c0-14.2,11.51-25.71,25.71-25.71s25.71,11.51,25.71,25.71h12.92
	c0-14.2,11.51-25.71,25.71-25.71s25.71,11.51,25.71,25.71h12.92c0-14.2,11.51-25.71,25.71-25.71c14.2,0,25.71,11.51,25.71,25.71
	h12.92c0-14.2,11.51-25.71,25.71-25.71c14.2,0,25.71,11.51,25.71,25.71h12.92c0-14.2,11.51-25.71,25.71-25.71
	c14.2,0,25.71,11.51,25.71,25.71h12.92c0-14.2,11.51-25.71,25.71-25.71s25.71,11.51,25.71,25.71h12.92
	c0-14.2,11.51-25.71,25.71-25.71c14.2,0,25.71,11.51,25.71,25.71h12.92c0-14.2,11.51-25.71,25.71-25.71s25.71,11.51,25.71,25.71
	h12.92C1256.4,982.74,1267.91,971.23,1282.11,971.23z"/>
</svg>
